<svg xmlns="http://www.w3.org/2000/svg" height="654.9" width="662.5">
  <path fill="#b1361e" d="M321.7 550.8a21 21 0 0112.2-3.6 21 21 0 0117.7 10.5 24.1 24.1 0 0117.8-7.2 24 24 0 0115.7 6.3 26.6 26.6 0 0126.3-19.7 26.5 26.5 0 019.7 2.1v.6c.4-15.7 13-28.2 28.4-28.7a35.5 35.5 0 01-3.3-19.7c1.5-12.3 9.1-22.4 19.4-27.7l.1.1c-5.3-5.5-8.5-13-8.3-21.3a29.6 29.6 0 016.2-17.5 27.3 27.3 0 01-12.1-33.5 24.5 24.5 0 01-22-25 24.7 24.7 0 01.3-3.8 19.8 19.8 0 01-4.2.4 19.8 19.8 0 01-18.7-15.3 17.7 17.7 0 01-10.3 3c-8.2-.3-15-6-16.8-13.7a11.2 11.2 0 01-5.8 1.4 11.2 11.2 0 01-4.8-1.2v-.2a36.4 36.4 0 01-9.7 16 11.2 11.2 0 015.2 5 11.3 11.3 0 01-.2 10.6 17.8 17.8 0 018.8 29.8 19.7 19.7 0 019.6 9c5 9.7 1.1 21.6-8.6 26.6a24.5 24.5 0 015.3 7c6.2 12.1 1.5 27-10.6 33a24.6 24.6 0 01-6 2.2v.1a27.3 27.3 0 01-11.8 36.8 27.1 27.1 0 01-14.7 2.9 29.7 29.7 0 01-17.7 29 17.2 17.2 0 013 5.6.7.7 0 01-.1 0z"/>
  <path fill="#b1361e" d="M623.8 10H38.7A28.7 28.7 0 0010 38.7v577.5a28.7 28.7 0 0028.7 28.7h585.1a28.7 28.7 0 0028.7-28.7V38.7A28.7 28.7 0 00623.8 10zm-26.5 388.8c-3.8 6-9.8 10-16.2 11.6a24.2 24.2 0 01-21.5 39.7 21.8 21.8 0 00-.2-1.1 21 21 0 01-28.8 23.4 17.1 17.1 0 01-2.6 7.5c-2.7 4.3-7 7-11.5 7.7a35.6 35.6 0 01.6 12.2 35.7 35.7 0 01-39.6 31.3h1a29.4 29.4 0 011.5 10.2 29.5 29.5 0 01-30.2 28.7 29.4 29.4 0 01-12.6-3.2 26.6 26.6 0 01-45.4 15.6 24.2 24.2 0 01-45.1 2 21 21 0 01-34.1-13.2 17.1 17.1 0 01-7.8 1.7c-8.7-.2-15.8-7-16.6-15.5l.1-.2a35.5 35.5 0 01-16.9 14 35.7 35.7 0 01-46-18.9 29.4 29.4 0 01-8.2 6.2 29.5 29.5 0 01-39.6-12.8 29.3 29.3 0 01-3.3-12.6 26.6 26.6 0 01-35.3-32.4 24.2 24.2 0 01-23.4-38.6 21 21 0 01-4.7-36.3 17.1 17.1 0 01-5.2-6 17.2 17.2 0 01.3-16.3l.5.1a35.5 35.5 0 01-13.3-6.4 35.7 35.7 0 01-7-49.4 29.4 29.4 0 01-9.4-3.9 29.5 29.5 0 01-9-40.7 29.3 29.3 0 019.3-9.1 26.6 26.6 0 0110-47 24.2 24.2 0 0121.6-39.6l.1 1.1a21 21 0 0128.8-23.5 17.1 17.1 0 012.6-7.5c2.7-4.2 7-6.9 11.6-7.7a35.6 35.6 0 01-.7-12.1 35.7 35.7 0 0138.7-31.4 29.4 29.4 0 01-1.6-10.1c.5-16.3 14-29.2 30.2-28.7a29.3 29.3 0 0112.6 3.1 26.6 26.6 0 0145.4-15.5 24.2 24.2 0 0145.1-2.1 21 21 0 0134.1 13.2 17.1 17.1 0 017.8-1.6c8.8.2 15.8 7 16.7 15.4l-.2.3a35.4 35.4 0 0116.9-14.1c18-7.3 38.4 1.2 46 19A29.4 29.4 0 01451 99a29.5 29.5 0 0139.7 12.8 29.3 29.3 0 013.2 12.6 26.6 26.6 0 0135.4 32.5 24.2 24.2 0 0123.4 38.5 21 21 0 014.7 36.3 17.1 17.1 0 015.1 6 17.2 17.2 0 01-.3 16.4 35.5 35.5 0 0112.9 6.3 35.7 35.7 0 016.9 49.3 29.4 29.4 0 019.4 4 29.5 29.5 0 019 40.6 29.3 29.3 0 01-9.2 9.2 26.6 26.6 0 016.1 35.3z"/>
  <path fill="#b1361e" d="M316.6 99.8a24.1 24.1 0 01-17.8 7.2 24 24 0 01-15.6-6.2 26.6 26.6 0 01-26.4 19.6 26.5 26.5 0 01-9.7-2 29.4 29.4 0 01-28.4 28 35.5 35.5 0 013.3 19.7 35.7 35.7 0 01-19.4 27.7c5.3 5.5 8.4 13 8.2 21.3a29.6 29.6 0 01-6.2 17.4c8.6 4.8 14.2 14 14 24.5a27.2 27.2 0 01-1.9 9 24.5 24.5 0 0122 25.1 24.7 24.7 0 01-.3 3.7 19.8 19.8 0 014.2-.3c9.2.2 16.8 6.7 18.8 15.3a17.7 17.7 0 0110.2-3c8.3.2 15 6 16.9 13.7a11.2 11.2 0 0110.2-.4 36.2 36.2 0 018.1-16.9 11.2 11.2 0 01-3.2-3.8 11.3 11.3 0 01.1-10.5A17.8 17.8 0 01295 259a19.7 19.7 0 01-9.6-9 19.8 19.8 0 0110.3-27.4 20 20 0 00-1.6.7 24.5 24.5 0 01-5.4-7 24.5 24.5 0 0116.7-35.2v-.1a27.3 27.3 0 0111.7-36.7 27.1 27.1 0 0114.8-3 29.7 29.7 0 0116-28.2 30 30 0 011.6-.7 17.2 17.2 0 01-2.9-5.6 21 21 0 01-12.2 3.5 21 21 0 01-17.7-10.6zm214.7 217a35.7 35.7 0 01-13.7-31c-7.4 1.7-15.5.6-22.4-3.9a29.6 29.6 0 01-11.8-14.3 27.3 27.3 0 01-28.1-.7 27.2 27.2 0 01-6.9-6.3c-7.6 10.2-21.9 13-32.8 6a24.8 24.8 0 01-3-2.2 19.8 19.8 0 01-1.8 3.8 19.8 19.8 0 01-22.8 8.1 17.7 17.7 0 01-2.8 10.3c-4.4 7-12.9 9.8-20.4 7.4a11.2 11.2 0 01-1.7 5.7c-.6.9-1.3 1.7-2 2.3a36.3 36.3 0 018.4 15.1 11.2 11.2 0 015-1.1 11.3 11.3 0 019.2 5.2 17.8 17.8 0 0130.4 6.5 19.7 19.7 0 0112.5-4.1c11 .2 19.5 9.3 19.3 20.2a19.8 19.8 0 01-.2 2l.2-1.9a24.5 24.5 0 018.7-1.4 24.5 24.5 0 0124 25.2 24.6 24.6 0 01-1 6.3c15.1.4 27 12.9 26.6 28a27.1 27.1 0 01-4.5 14.3A29.7 29.7 0 01517 444a29.7 29.7 0 01-2 9.7l.1-.2 2.7.5a21 21 0 013.3-12.3 21 21 0 0118.2-9.7 24.1 24.1 0 013-19 24 24 0 0113.5-10 26.6 26.6 0 01-3.3-32.8 26.5 26.5 0 016.9-7.2 29.4 29.4 0 01-9.4-38.9 35.5 35.5 0 01-18.6-7.3z"/>
  <path fill="#b1361e" d="M532.7 236.4a17.2 17.2 0 012.2-2.9 21 21 0 01-8.9-9 21 21 0 01.8-20.6c-6.2-1.8-11.6-6-14.8-12.2a24 24 0 01-2-16.7 26.6 26.6 0 01-29.9-13.7 26.6 26.6 0 01-2.8-9.6 29.4 29.4 0 01-38.2-11.5 35.5 35.5 0 01-15.7 12.3 35.7 35.7 0 01-33.6-3.8v-.3a29.7 29.7 0 01-14.8 17.7 29.6 29.6 0 01-18.3 3 27.3 27.3 0 01-14.8 23.8 27.2 27.2 0 01-8.8 2.8c4.9 11.7 0 25.4-11.5 31.3a24.7 24.7 0 01-3.4 1.5 19.8 19.8 0 012.3 3.5c4.2 8.2 2.1 18-4.5 23.8a17.7 17.7 0 017.5 7.6c3.8 7.3 2 16-4 21.3a11.2 11.2 0 014.1 4.4c.5.9.8 1.8 1 2.7a36.3 36.3 0 0118-.4 11.3 11.3 0 011.5-3.8 11.3 11.3 0 019.1-5.2 17.8 17.8 0 0121.3-22.7 19.7 19.7 0 013-12.8c5.8-9.2 18-11.9 27.2-6a24.5 24.5 0 013.4-8.2 24.5 24.5 0 0134-7.5 24.5 24.5 0 014.8 4.1 27.3 27.3 0 0137.7-8.4 27.1 27.1 0 0110 11.3c9.5-6.4 22.3-7 32.5-.4a29.7 29.7 0 015.6 4.6zm-188 132a11.2 11.2 0 01-1.3-6.4 36.4 36.4 0 01-9 1.1c-3 0-5.9-.3-8.6-1a11.2 11.2 0 01-1.6 7.9 11.3 11.3 0 01-9.2 5.2 17.8 17.8 0 01-21.2 22.6 19.7 19.7 0 01-3 12.8 19.8 19.8 0 01-27.3 6 24.5 24.5 0 01-3.4 8.2 24.5 24.5 0 01-33.9 7.5 24.6 24.6 0 01-4.9-4.1v.1a27.3 27.3 0 01-37.7 8.3 27.1 27.1 0 01-10-11.2c-9.5 6.4-22.2 7-32.5.4a29.8 29.8 0 01-5.6-4.6 17.4 17.4 0 01-2.2 2.8 21 21 0 019 9 21 21 0 01-.9 20.6c6.2 1.8 11.7 6 14.8 12.2a24 24 0 012 16.7 26.6 26.6 0 0130 13.8 26.5 26.5 0 012.7 9.5 29.4 29.4 0 0138.3 11.5 35.5 35.5 0 0115.7-12.3c11.5-4.6 24-2.8 33.6 3.8a29.6 29.6 0 0114.7-17.4 29.6 29.6 0 0118.3-2.9c.1-9.7 5.5-19.1 14.8-23.9a27.3 27.3 0 018.9-2.8c-5-11.7 0-25.4 11.4-31.3a24.6 24.6 0 013.5-1.4 19.7 19.7 0 01-2.4-3.6c-4.2-8.2-2-17.9 4.5-23.7a17.7 17.7 0 01-7.5-7.6c-3.7-7.4-1.9-16.1 4-21.4a11.2 11.2 0 01-4-4.4z"/>
  <path fill="#b1361e" d="M300.4 339.5a11.2 11.2 0 01-6.7 2 11.3 11.3 0 01-9.2-5.1 17.8 17.8 0 01-30.3-6.5 19.7 19.7 0 01-12.6 4c-10.9-.2-19.5-9.3-19.2-20.2a24.5 24.5 0 01-8.8 1.3 24.5 24.5 0 01-22.9-31.5h-.1c-15-.3-27-12.8-26.6-27.9a27.1 27.1 0 014.5-14.3 29.7 29.7 0 01-17.1-27.7 29.7 29.7 0 011.8-9.6 17.4 17.4 0 01-2.7-.5 21 21 0 01-3.3 12.3 21 21 0 01-18.2 9.7c1.6 6.3.7 13.1-3 19a24 24 0 01-13.4 10.1c8.3 8.7 10 22.2 3.2 32.8a26.5 26.5 0 01-6.8 7.2 29.4 29.4 0 019.4 38.8 35.5 35.5 0 0118.5 7.4 35.7 35.7 0 0113.7 30.9c7.5-1.7 15.5-.5 22.5 4a29.6 29.6 0 0111.7 14.2 27.3 27.3 0 0128.1.8 27.2 27.2 0 016.9 6.2c7.6-10.2 22-13 32.8-6a24.6 24.6 0 013 2.3 19.8 19.8 0 011.9-3.8c5-7.8 14.4-10.9 22.8-8.2A17.7 17.7 0 01283 371c4.5-7 13-9.7 20.4-7.3a11.2 11.2 0 016.6-10 36.4 36.4 0 01-9.6-14z"/>
</svg>
