<svg width="188" height="49" viewBox="0 0 188 49" fill="none" xmlns="http://www.w3.org/2000/svg">
<path d="M45.4101 26.3882C39.6683 26.3882 37.6587 22.967 37.6587 16.675C37.6587 10.5266 39.6683 6.72264 45.4101 6.72264C47.1326 6.72264 48.3766 6.91403 49.1183 7.20112C49.2379 7.22504 49.2618 7.29682 49.2618 7.44036L49.1183 9.59352C49.1183 9.68921 49.0465 9.78491 48.879 9.71314C48.2092 9.4739 46.9412 9.28251 45.7689 9.28251C42.2521 9.28251 41.2951 11.1964 41.2951 16.6989C41.2951 21.9144 42.3478 23.7326 45.7689 23.7326C46.7737 23.7326 48.0178 23.5651 48.7594 23.3977C48.879 23.3498 49.0704 23.302 49.1183 23.4934L49.3336 25.5747C49.3575 25.7661 49.3097 25.814 49.214 25.8858C48.257 26.1489 46.8216 26.3642 45.3861 26.3642M57.3481 22.8713C57.9223 23.4694 58.6879 23.7326 60.6018 23.7326C62.5636 23.7326 63.3052 23.4694 63.8555 22.8713C64.7646 21.9144 65.2191 19.2827 65.2191 16.3879C65.2191 13.4453 64.7646 11.1486 63.8555 10.1916C63.3052 9.56959 62.5636 9.33035 60.6496 9.33035C58.6879 9.33035 57.9223 9.59352 57.3481 10.1916C56.439 11.1486 56.0084 13.4453 56.0084 16.3879C56.0084 19.2588 56.439 21.8904 57.3481 22.8474M66.5589 24.4503C65.3148 25.7901 63.4487 26.3642 60.5779 26.3642C57.6591 26.3642 55.9605 25.7901 54.7165 24.4503C53.0897 22.0818 52.2762 19.2588 52.4198 16.3879C52.4198 12.7993 53.3768 10.0002 54.7165 8.54086C55.9605 7.1772 57.8266 6.72264 60.6496 6.72264C63.5684 6.72264 65.3148 7.20112 66.5589 8.54086C68.1618 10.8376 68.9513 13.5888 68.7838 16.3879C68.7838 19.9048 67.8268 22.967 66.5589 24.4503ZM85.3153 10.072C85.3153 9.90453 85.2196 9.76099 85.0282 9.66529C84.5258 9.4739 83.3057 9.33035 82.2769 9.33035C78.2577 9.33035 76.9897 10.383 76.9897 16.3162C77.0136 22.1536 77.6596 23.7565 82.4444 23.7565C83.21 23.7565 84.3583 23.7326 85.0043 23.5173C85.3153 23.3977 85.3153 23.2541 85.3153 23.1106V10.072ZM73.3533 16.3162C73.3533 9.59352 75.9849 6.72264 82.2052 6.72264C83.4731 6.72264 84.5975 6.96188 85.076 6.96188C85.2435 6.96188 85.2913 6.81833 85.2913 6.65087V0.334936C85.2913 0.11962 85.4349 0 85.6741 0H88.4015C88.6407 0 88.7842 0.11962 88.7842 0.334936V25.2159C88.7842 25.4073 88.6407 25.5508 88.4015 25.5987C86.4397 26.1011 84.4062 26.3642 82.3726 26.3642C75.1715 26.3642 73.3533 23.5651 73.3533 16.3162ZM97.8514 15.1678H105.914C106.249 15.1678 106.368 15.12 106.368 13.9238C106.368 10.7419 105.411 9.28251 102.23 9.28251C98.5213 9.28251 97.6361 11.6749 97.6361 14.9286C97.6361 15.0721 97.66 15.1678 97.8514 15.1678ZM102.947 26.3403C95.7461 26.3403 94.0236 21.9383 94.0236 16.5315C94.0236 10.9333 96.1289 6.72264 102.23 6.72264C108.211 6.72264 109.598 10.2395 109.598 14.9286V15.9094C109.598 17.3449 109.263 17.6559 108.641 17.6559H97.8514C97.66 17.6559 97.6122 17.7277 97.6122 17.9191C97.6122 22.6082 99.8611 23.7565 103.689 23.7565C105.411 23.7565 107.277 23.278 108.402 22.7996H108.593C108.761 22.7996 108.88 22.8713 108.928 22.9909L109.072 24.9049V24.9766C109.072 25.1202 109.024 25.2877 108.856 25.3594C106.99 26.0532 105.005 26.4121 102.995 26.3642M136.154 25.9814H131.441C131.273 25.9814 131.201 25.9336 131.13 25.7422L127.613 10.2634C127.541 10.072 127.493 10.0241 127.23 10.0241C126.919 10.0241 126.847 10.072 126.776 10.2634C125.771 14.9286 123.761 22.7039 122.9 25.7422C122.828 25.9336 122.708 26.0293 122.469 26.0293H117.852C117.732 26.0293 117.613 25.8618 117.565 25.6944C115.794 19.6416 114.192 13.541 112.756 7.39251C112.756 7.15327 112.804 7.0815 112.995 7.0815H116.201C116.393 7.0815 116.416 7.20112 116.44 7.39251C117.493 12.6079 118.665 17.7994 119.957 22.9431C119.957 23.1584 120.125 23.1823 120.364 23.1823C120.699 23.1823 120.795 23.1584 120.818 22.9431L124.335 7.39251C124.383 7.15327 124.479 7.0815 124.646 7.0815H129.67C129.838 7.0815 129.981 7.20112 129.981 7.39251C130.89 11.8663 132.685 19.522 133.474 22.9431C133.546 23.1584 133.713 23.1823 133.953 23.1823C134.24 23.1823 134.312 23.1584 134.383 22.9431C135.34 19.4741 137.254 11.8902 138.163 7.39251C138.235 7.15327 138.355 7.0815 138.522 7.0815H141.513C141.656 7.0815 141.752 7.22504 141.752 7.41644C141.273 9.71314 137.828 22.034 136.608 25.7422C136.537 25.9336 136.441 26.0293 136.202 26.0293M155.365 17.6081C155.365 17.4406 155.269 17.3688 155.125 17.3688H151.824C148.762 17.3688 147.972 18.0148 147.972 20.8617C147.972 23.6369 148.594 23.9718 152.207 23.9718C153.14 23.9958 154.073 23.924 155.006 23.7804C155.341 23.7326 155.341 23.6369 155.341 23.5412L155.365 17.6081ZM146.848 9.71314C146.609 9.76099 146.345 9.76099 146.298 9.56959L146.058 7.79922C145.986 7.60783 146.058 7.39251 146.25 7.32074C148.092 6.86618 150.006 6.65087 151.896 6.69872C156.417 6.69872 158.738 8.2777 158.738 12.4405V25.192C158.738 25.4312 158.642 25.5747 158.259 25.7422C156.369 26.1728 154.456 26.3882 152.518 26.3403C146.202 26.3403 144.384 25.0723 144.384 21.2445C144.384 17.8234 145.221 16.0051 150.58 15.3592L155.173 14.8329C155.293 14.785 155.413 14.7611 155.413 14.5936V12.8233C155.413 10.072 154.216 9.40213 151.106 9.40213C149.79 9.40213 148.02 9.56959 146.848 9.71314ZM165.054 7.48821C168.02 6.77049 171.107 6.57909 174.145 6.89011C174.336 6.91403 174.384 7.00973 174.384 7.20112L174.217 9.42605C174.217 9.56959 174.121 9.61744 173.978 9.59352C173.021 9.42605 172.064 9.35428 170.867 9.35428C170.221 9.35428 168.954 9.42605 168.403 9.71314C168.188 9.80883 168.164 9.9763 168.164 10.1438V25.6704C168.164 25.9097 167.997 26.0532 167.733 25.9814H165.03C164.791 25.9814 164.671 25.8618 164.671 25.6704V7.79922C164.671 7.60783 164.815 7.48821 165.054 7.48821ZM176.059 25.9814C175.939 25.9814 175.844 25.9336 175.844 25.7661L176.011 23.4934C176.011 23.3977 176.131 23.302 176.298 23.3498C177.59 23.5891 178.93 23.7326 180.246 23.7326C183.356 23.7326 183.882 23.3977 183.882 21.1727C183.882 19.8569 183.117 19.1631 180.15 17.1056C177.159 14.9764 176.011 14.1152 176.011 11.8424C176.011 8.15808 177.686 6.72264 182.471 6.72264C184.169 6.72264 185.629 6.81833 186.633 7.00973C186.729 7.00973 186.825 7.0815 186.825 7.24897L186.681 9.49782C186.681 9.61744 186.538 9.68921 186.37 9.66529C185.437 9.49782 184.073 9.33035 182.853 9.33035C180.174 9.33035 179.265 9.49782 179.265 11.4835C179.265 13.0146 180.054 13.541 183.045 15.4549C186.179 17.4645 187.208 18.8521 187.208 20.9813C187.208 25.168 185.294 26.3642 180.82 26.3642C179.217 26.3882 177.614 26.2685 176.035 26.0293" fill="white"/>
<path d="M8.61482 15.5984C8.90191 15.9812 8.97368 16.4836 8.80621 16.9382C9.38039 16.986 9.83495 17.4406 9.88279 18.0148C10.4091 17.8951 10.9355 18.1822 11.1268 18.6607C11.5575 18.3497 12.1795 18.4215 12.4905 18.876C12.5144 18.9 12.5144 18.9 12.5384 18.9239L12.658 18.8043C12.9211 18.565 13.3278 18.5411 13.6389 18.7564C13.6867 18.6129 13.7585 18.4932 13.8542 18.3976C14.1173 18.1822 14.4523 18.1583 14.7154 18.3497C14.7633 18.1822 14.9068 18.0626 15.0743 18.0387C14.9547 17.8473 14.9068 17.632 14.8829 17.4167V17.4406C14.6437 17.5124 14.4044 17.3927 14.3327 17.1774C14.3327 17.1535 14.3327 17.1535 14.3087 17.1296C14.0934 17.2492 13.8303 17.2731 13.6149 17.1535C13.3996 17.0339 13.2561 16.8186 13.2322 16.5793C13.0886 16.6272 12.8733 16.6511 12.7058 16.5793C12.2991 16.4358 12.0838 16.0052 12.2034 15.5984C11.8446 15.6224 11.5096 15.431 11.3182 15.12C11.1268 14.809 11.1508 14.4262 11.3422 14.1152C10.9594 14.0195 10.6484 13.6845 10.5766 13.3017C10.4809 12.895 10.6244 12.4883 10.9354 12.2491C10.4809 11.8424 10.433 11.1486 10.7919 10.6701C10.7441 10.6701 10.7201 10.6462 10.6962 10.6462C10.6484 10.8615 10.4809 11.0529 10.2895 11.1486C10.0981 11.2682 9.85887 11.2682 9.64355 11.2204C9.61963 11.7228 9.189 12.1295 8.68659 12.1534C8.83014 12.4166 8.85406 12.7515 8.73444 13.0386C8.61482 13.3257 8.37558 13.541 8.08849 13.6367C8.47128 14.1152 8.44736 14.785 8.01672 15.2157C8.23204 15.2157 8.44736 15.3592 8.61482 15.5984Z" fill="#F05656"/>
<path d="M14.8112 22.4407C14.7394 21.9144 15.1222 21.412 15.6725 21.3641C15.6964 21.3641 15.7203 21.3641 15.7443 21.3641L15.7203 21.2206C15.6486 20.8617 15.8399 20.4789 16.1749 20.3593C16.0792 20.2636 15.9835 20.1201 15.9835 20.0004C15.9356 19.6894 16.0792 19.3784 16.3663 19.2349C16.2945 19.187 16.2706 19.0913 16.2467 18.9956C16.2467 18.9239 16.2467 18.8282 16.2945 18.7564C16.0553 18.7564 15.816 18.6846 15.6007 18.565C15.5768 18.6607 15.5289 18.7803 15.4332 18.8521C15.3375 18.9478 15.1701 18.9956 15.0505 18.9478C15.0505 19.211 14.9308 19.4502 14.6916 19.5937C14.4524 19.7373 14.1892 19.7134 13.95 19.5937C13.8782 19.8808 13.6629 20.1201 13.3758 20.1918C13.0887 20.2636 12.7777 20.1918 12.5863 19.9526C12.5624 20.0483 12.4427 20.1679 12.371 20.2158C12.1557 20.4071 11.8446 20.5028 11.5336 20.455C11.2226 20.4071 10.9834 20.1918 10.8398 19.9287C10.5288 20.1918 10.1221 20.2636 9.76326 20.1201C9.4044 19.9765 9.11731 19.6655 9.06946 19.2588C8.51921 19.4263 7.92111 19.187 7.65795 18.6846C7.6101 18.7085 7.56225 18.7325 7.5144 18.7325C7.63402 18.8521 7.72972 19.0196 7.75364 19.187C7.82542 19.4741 7.7058 19.7612 7.5144 19.9526C7.94504 20.2397 8.08858 20.8139 7.82542 21.2445C8.13643 21.2684 8.39959 21.412 8.59098 21.6512C8.78238 21.8904 8.85415 22.2014 8.8063 22.4885C9.4044 22.3928 10.0025 22.7756 10.146 23.3498C10.7441 22.8713 11.6293 22.9431 12.1078 23.5412L12.1317 23.5651C12.4667 23.0866 13.0648 22.9192 13.5911 23.1584C13.7586 22.6799 14.2849 22.345 14.8112 22.4407Z" fill="#F05656"/>
<path d="M17.7301 12.2969C17.754 12.5601 17.6823 12.8472 17.4909 13.0386C17.2995 13.2539 17.0602 13.3735 16.7731 13.3735L16.7971 13.517C16.8688 13.8759 16.7014 14.2587 16.3664 14.3783H16.3425C16.6296 14.6654 16.6296 15.1199 16.3425 15.3831C16.2947 15.4309 16.2468 15.4788 16.175 15.5027C16.2468 15.5984 16.2947 15.6941 16.2707 15.8137C16.51 15.8137 16.7732 15.8855 16.9885 16.029C17.0842 15.8377 17.2756 15.742 17.4909 15.7898C17.4909 15.5266 17.6105 15.2874 17.8497 15.1439C18.089 15.0003 18.3521 15.0242 18.5914 15.1439C18.5914 14.9764 18.6871 14.8328 18.8306 14.7132C19.1895 14.4261 19.668 14.4501 19.9311 14.785C20.1943 14.3065 20.7685 14.1391 21.2469 14.3783C21.4144 14.474 21.5579 14.6175 21.6536 14.785C21.9647 14.5218 22.3714 14.4501 22.7302 14.5936C23.0891 14.7372 23.3762 15.0482 23.424 15.4549C23.9743 15.2635 24.5724 15.5027 24.8355 16.029L24.9552 15.9573C24.6202 15.6463 24.5963 15.1199 24.9073 14.785C24.9312 14.7611 24.9312 14.7372 24.9552 14.7372C24.5245 14.4501 24.381 13.8759 24.6441 13.4453C24.3331 13.4453 24.046 13.3017 23.8547 13.0386C23.6633 12.7993 23.5915 12.4883 23.6393 12.1773C23.0412 12.273 22.4431 11.8902 22.2996 11.316C21.7015 11.7945 20.8163 11.6988 20.3378 11.1007C20.0029 11.5792 19.3809 11.7467 18.8545 11.4835C18.7588 12.0337 18.2564 12.3687 17.7301 12.2969Z" fill="#F05656"/>
<path d="M12.4188 12.2491C12.8016 12.6319 12.8495 13.2539 12.5145 13.6845C12.7538 13.7802 12.9452 13.9955 13.0408 14.2348C13.1365 14.4979 13.1126 14.7611 12.993 15.0003L13.1365 15.0482C13.4954 15.1439 13.7346 15.4788 13.6868 15.8138C13.9021 15.742 14.1653 15.7898 14.3567 15.9334C14.5481 16.0769 14.6438 16.3162 14.6198 16.5554C14.7634 16.5075 14.9069 16.5554 15.0265 16.6272C15.1462 16.4118 15.3136 16.2205 15.505 16.0769L15.4332 15.8855C15.4093 15.742 15.4811 15.5984 15.5529 15.4788C15.3376 15.3353 15.2179 15.12 15.2179 14.8568C15.2179 14.6176 15.3615 14.3783 15.5768 14.2587C15.3615 14.0673 15.2658 13.7563 15.3375 13.4692C15.4093 13.1821 15.6486 12.9668 15.9356 12.895C15.7443 12.584 15.7682 12.2012 15.9356 11.8902C16.127 11.5792 16.462 11.4117 16.8208 11.4117C16.7491 11.029 16.8926 10.6222 17.2036 10.3591C17.5146 10.0959 17.9213 10.0481 18.3041 10.1916C18.3998 9.71314 18.8065 9.35428 19.285 9.2825L19.2611 9.01934C19.0936 9.09111 18.9022 9.11504 18.7348 9.06719C18.4237 8.97149 18.2563 8.70833 18.1845 8.42124C17.7299 8.6844 17.1797 8.54086 16.8926 8.11023C16.7251 8.37339 16.462 8.54086 16.1749 8.58871C15.8878 8.63656 15.5768 8.56478 15.3375 8.37339C15.1462 8.94757 14.5481 9.30643 13.95 9.13896C14.0696 9.90453 13.5672 10.6222 12.8016 10.7658C13.0408 11.2682 12.8973 11.8902 12.4188 12.2491Z" fill="#F05656"/>
<path d="M23.8068 21.7709C23.9264 21.4838 24.1656 21.2684 24.4527 21.1728C24.0699 20.6943 24.0939 20.0244 24.5245 19.5938C24.2613 19.522 24.046 19.3545 23.9025 19.1392H23.8786C23.5915 18.7564 23.5197 18.254 23.6872 17.7995C23.113 17.7516 22.6584 17.2971 22.6106 16.7229C22.1082 16.8425 21.5819 16.5554 21.3905 16.0769C21.1751 16.2444 20.8881 16.3162 20.6249 16.2683C20.3617 16.2205 20.1225 16.053 19.9789 15.8138L19.8593 15.9334C19.5962 16.1726 19.1895 16.1966 18.9024 16.0052C18.8545 16.1487 18.7588 16.2683 18.6631 16.364C18.4239 16.5794 18.065 16.6033 17.8019 16.4119C17.7779 16.5315 17.6822 16.6272 17.5626 16.699C17.6583 16.8904 17.7301 17.1296 17.7301 17.3688H17.9215C18.0889 17.4167 18.1846 17.5363 18.2086 17.6799C18.4239 17.5363 18.687 17.5363 18.9263 17.6559C19.1416 17.7755 19.3091 17.9909 19.3091 18.254C19.4765 18.1823 19.6679 18.1823 19.8354 18.254C20.2421 18.3976 20.4574 18.8282 20.3378 19.2349C20.7206 19.1871 21.1034 19.3785 21.2948 19.7134C21.4862 20.0483 21.4622 20.455 21.2469 20.766C21.6058 20.8857 21.8689 21.1967 21.9407 21.5795C22.0125 21.9622 21.8929 22.345 21.6058 22.6082C22.0603 23.0149 22.1082 23.7087 21.7493 24.1872L21.8689 24.235C21.9168 24.0197 22.0603 23.8283 22.2756 23.7326C22.467 23.613 22.7063 23.5891 22.9216 23.6609C22.9455 23.1345 23.3762 22.7278 23.8786 22.7278C23.7111 22.3929 23.7111 22.0579 23.8068 21.7709Z" fill="#F05656"/>
<path d="M20.1224 22.4886C19.7396 22.1058 19.6918 21.4838 20.0267 21.0532C19.7635 20.9575 19.5722 20.7422 19.4765 20.5029C19.3808 20.2637 19.4047 19.9766 19.5243 19.7134L19.3808 19.6656C19.0219 19.5699 18.8066 19.235 18.8305 18.9V18.8761C18.6152 18.9479 18.352 18.9 18.1606 18.7565C17.9693 18.6129 17.8736 18.3976 17.8736 18.1584C17.73 18.1823 17.5865 18.1345 17.4908 18.0388C17.3712 18.2541 17.1798 18.4215 16.9644 18.5412C17.1558 18.7086 17.1558 18.9718 17.0123 19.1632C16.9884 19.1871 16.9884 19.1871 16.9644 19.211C17.2994 19.4263 17.419 19.857 17.2037 20.1919C17.1319 20.2876 17.0601 20.3833 16.9644 20.4312C17.1798 20.6225 17.2755 20.9336 17.2037 21.2206C17.1319 21.5077 16.9166 21.7231 16.6295 21.7948C16.6774 21.9144 16.7252 21.9862 16.7252 22.1298C16.7731 22.4168 16.7013 22.7279 16.486 22.9671C16.2946 23.1824 15.9836 23.302 15.6965 23.302C15.7922 23.9001 15.4094 24.4504 14.8113 24.5461C14.6199 24.57 14.4285 24.57 14.2371 24.4982C14.1414 24.9767 13.7347 25.3356 13.2562 25.4073L13.2802 25.6705V25.6466C13.4955 25.5748 13.7586 25.5987 13.95 25.7184C14.1414 25.838 14.285 26.0294 14.3328 26.2686C14.7874 26.0054 15.3376 26.149 15.6247 26.5796C15.7922 26.3165 16.0553 26.149 16.3424 26.1011C16.6534 26.0533 16.9405 26.149 17.1798 26.3404C17.3472 25.7423 17.9932 25.4313 18.5673 25.5748C18.4477 24.8092 18.9501 24.0915 19.7157 23.948C19.5004 23.4456 19.6679 22.8236 20.1224 22.4886Z" fill="#F05656"/>
<path d="M25.5293 22.9669C25.3139 23.1582 25.0508 23.2539 24.7637 23.23C24.8833 23.5889 24.7876 23.9956 24.5244 24.2587C24.2613 24.5219 23.8546 24.6176 23.4957 24.4741C23.4718 24.7611 23.2804 25.0243 23.0172 25.1439C22.7302 25.2636 22.3952 25.2157 22.156 25.0243C22.0364 25.2875 21.7493 25.4549 21.4622 25.431C21.4622 25.5985 21.4143 25.742 21.3186 25.8856C21.0076 26.5794 20.2181 26.9143 19.5004 26.6272C19.5243 27.2732 19.0219 27.8234 18.3521 27.8473C18.041 27.8473 17.73 27.7516 17.4908 27.5124C17.3233 27.8952 16.9884 28.1344 16.5817 28.1584C16.175 28.1823 15.7922 27.967 15.6008 27.6081C15.3616 27.9191 14.9788 28.0627 14.596 27.967C14.2132 27.8713 13.9261 27.5603 13.8544 27.2014C13.5673 27.321 13.2563 27.2971 13.017 27.1057C12.7778 26.9143 12.6582 26.6272 12.706 26.3162L12.395 26.2923C12.0601 26.1966 11.8687 25.8377 11.9404 25.5028C11.7251 25.7181 11.462 25.8138 11.1509 25.8377C10.3614 25.9095 9.69158 25.3592 9.61981 24.6176C9.2131 24.8568 8.71069 24.809 8.32791 24.5219C7.94513 24.2348 7.77766 23.7563 7.89728 23.3018C7.3231 23.3736 6.79677 22.9429 6.74893 22.3687C6.725 22.1295 6.79677 21.8663 6.91639 21.675C6.39007 21.6032 6.00728 21.1008 6.07905 20.5745C6.10298 20.3352 6.24652 20.096 6.43791 19.9524C6.19867 19.761 6.07906 19.4739 6.1269 19.1629C6.17475 18.8519 6.39007 18.6127 6.67715 18.517C6.46184 18.2538 6.48576 17.8471 6.725 17.6079H6.74893C6.58146 17.5122 6.43791 17.3926 6.31829 17.2251C5.86374 16.6031 5.98336 15.7418 6.58146 15.2633C6.17475 15.0241 5.93551 14.5695 6.00728 14.115C6.05513 13.6365 6.39007 13.2537 6.84462 13.1102C6.60538 12.7752 6.58146 12.3446 6.77285 11.9857C6.96424 11.6269 7.37095 11.4116 7.77766 11.4594C7.63412 11.1006 7.72981 10.6938 7.99297 10.4307C8.25614 10.1675 8.66285 10.0718 9.02171 10.2154C9.04563 9.92828 9.23702 9.66512 9.52411 9.5455C9.8112 9.42588 10.1222 9.47373 10.3614 9.66512C10.4811 9.37803 10.7682 9.21056 11.0552 9.23448L11.0792 9.30626C11.0792 8.8517 11.3184 8.42107 11.7012 8.15791C12.084 7.89474 12.5625 7.84689 12.9931 8.01436L13.0649 7.60765C13.1845 7.22487 13.5194 6.93778 13.9022 6.84209C14.285 6.74639 14.6917 6.86601 15.0027 7.12917C15.1462 6.74639 15.5051 6.48323 15.9357 6.4593C16.3424 6.43538 16.7252 6.6507 16.9166 7.03348C17.1559 6.72247 17.5386 6.57892 17.9214 6.67462C18.3042 6.77032 18.5913 7.08133 18.6631 7.44019C18.9502 7.32057 19.2612 7.36841 19.5004 7.55981C19.7397 7.7512 19.8593 8.06221 19.7875 8.3493C20.1464 8.27753 20.5052 8.51677 20.577 8.87563C20.6009 8.97132 20.6009 9.04309 20.577 9.13879C20.7923 8.92347 21.0555 8.82778 21.3665 8.77993C22.156 8.73208 22.8019 9.28233 22.8737 10.024C23.2804 9.78474 23.8067 9.80866 24.1895 10.0957C24.5723 10.3828 24.7398 10.8852 24.6201 11.3398C25.1943 11.268 25.7206 11.6987 25.7685 12.2728C25.7924 12.5121 25.7206 12.7752 25.601 12.9666C25.9838 13.0384 26.2948 13.3016 26.3905 13.6843C26.4862 14.0671 26.3666 14.4499 26.0556 14.6892C26.2231 14.8088 26.3427 15.0002 26.3905 15.1916C26.4384 15.5983 26.2231 15.981 25.8403 16.1485C26.0556 16.4117 26.0317 16.8184 25.7924 17.0576C26.1991 17.2969 26.4623 17.7275 26.4862 18.1821C26.5101 18.6605 26.2948 19.0912 25.936 19.3783C26.0556 19.45 26.1513 19.5218 26.247 19.6414C26.5101 19.9524 26.5819 20.3591 26.4862 20.7419C26.3666 21.1247 26.0795 21.4118 25.6967 21.5314C26.0077 22.0099 25.936 22.6319 25.5293 22.9669ZM29.0939 6.65069L19.1416 0.908939C17.3712 -0.119793 15.1702 -0.119793 13.3998 0.908939L3.44742 6.65069C1.67704 7.67943 0.576538 9.56942 0.576538 11.6269V23.1104C0.576538 25.1679 1.67704 27.0579 3.44742 28.0866L13.3998 33.8283C15.1702 34.8571 17.3712 34.8571 19.1416 33.8283L29.0939 28.0866C30.8643 27.0579 31.9648 25.1679 31.9648 23.1104V11.603C31.9648 9.56942 30.8643 7.67943 29.0939 6.65069Z" fill="#F05656"/>
<path d="M143.373 48.6582V48.3477H143.389C144.665 48.3477 145.007 47.975 145.007 46.6395V42.0276C145.007 40.1797 144.447 39.3567 143.187 39.3567C142.393 39.3567 141.537 39.807 140.666 40.6766L140.635 40.7077V46.6395C140.635 47.9129 141.024 48.3321 142.284 48.3477V48.6582H136.791V48.3477C138.067 48.3166 138.441 47.9284 138.441 46.6395V41.0648C138.441 39.7915 138.192 39.3257 137.492 39.3257C137.258 39.3257 136.9 39.4033 136.62 39.512V39.1859L139.81 38.2076C139.935 38.1766 140.043 38.161 140.152 38.161C140.464 38.161 140.635 38.3629 140.635 38.7356V40.0089L140.837 39.776C142.004 38.394 142.984 37.8505 144.338 37.8505C146.252 37.8505 147.201 39.0772 147.201 41.5928V46.6395C147.201 47.9284 147.606 48.3477 148.882 48.3477V48.6582H143.373Z" fill="white"/>
<path d="M154.041 48.9842C152.672 48.9842 151.598 48.5184 150.758 47.5401C149.933 46.5929 149.513 45.3195 149.513 43.8133C149.513 42.1673 149.996 40.8008 150.992 39.6361C151.987 38.4405 153.232 37.8504 154.819 37.8504C155.815 37.8504 156.593 38.1299 157.107 38.6734L157.309 38.8753V35.8938C157.309 34.2633 157.044 33.7509 156.204 33.7509C156.002 33.7509 155.644 33.8285 155.38 33.9062L155.395 33.5801L158.943 32.4776C158.989 32.462 159.021 32.462 159.067 32.462C159.301 32.462 159.487 32.6484 159.487 32.8813V45.5525C159.487 47.214 159.767 48.0525 160.39 48.2233C160.53 48.2699 160.888 48.301 161.37 48.301V48.6116L157.916 48.5805H157.309V47.4935L157.122 47.6488C156.126 48.565 155.115 48.9842 154.041 48.9842ZM154.85 38.5026C153.139 38.5026 151.987 40.3039 151.987 42.9903C151.987 45.832 153.326 47.8041 155.208 47.8041C155.877 47.8041 156.578 47.478 157.293 46.8103L157.325 46.7792V41.8567C157.34 39.7293 156.438 38.5026 154.85 38.5026Z" fill="white"/>
<path d="M166.511 48.9843C165.095 48.9843 163.944 48.4874 162.979 47.4625C162.061 46.4377 161.594 45.1333 161.594 43.596C161.594 41.9034 162.061 40.5214 162.948 39.4654C163.866 38.394 165.08 37.8505 166.573 37.8505C169.156 37.8505 170.837 39.4809 170.884 42.0121H163.321V42.1208C163.321 45.1022 164.815 46.9656 167.227 46.9656C168.752 46.9656 169.888 46.2203 170.603 44.7451L170.852 44.9314C170.619 46.065 170.121 47.0277 169.359 47.7886C168.581 48.5961 167.647 48.9843 166.511 48.9843ZM166.029 38.5337C164.613 38.5337 163.477 39.7139 163.368 41.2978L163.352 41.422H168.456L168.441 41.2978C168.363 39.5431 167.476 38.5337 166.029 38.5337Z" fill="white"/>
<path d="M172.811 48.6586V36.003C172.811 34.4501 172.531 33.9377 171.706 33.9377C171.473 33.9377 171.115 33.9998 170.85 34.0774V33.7824L174.32 32.478C174.367 32.4625 174.413 32.447 174.46 32.447H174.553C174.787 32.447 174.974 32.6333 174.974 32.8662V46.6399C174.974 47.8667 175.409 48.3325 176.623 48.348V48.6586H172.811Z" fill="white"/>
<path d="M184.949 48.9844C184.078 48.9844 183.658 48.4875 183.627 47.4471L183.611 47.2142L183.425 47.3695C182.18 48.4409 181.09 48.9999 180.188 48.9999C178.539 48.9999 177.496 48.0061 177.496 46.4378C177.496 45.5837 177.932 44.8228 178.803 44.124C179.706 43.4097 181.293 42.6799 183.518 41.919L183.596 41.8879V41.8103C183.596 39.714 183.284 38.5028 181.651 38.5028C180.266 38.5028 179.986 39.2481 179.986 39.8848C179.986 41.0184 179.628 41.5774 178.881 41.5774C178.29 41.5774 177.885 41.1581 177.885 40.537C177.885 39.8227 178.243 39.2171 178.974 38.6891C179.737 38.1456 180.748 37.8661 182.009 37.8661C184.545 37.8661 185.774 38.9065 185.774 41.0339V45.8322C185.774 47.1987 185.976 47.5247 186.334 47.6334C186.365 47.649 186.397 47.649 186.443 47.649C186.646 47.649 186.894 47.4937 187.19 47.1831L187.424 47.4782C186.645 48.472 185.805 48.9844 184.949 48.9844ZM183.471 42.5091C180.593 43.6737 179.721 44.4812 179.721 45.9098C179.721 46.8726 180.421 47.6024 181.339 47.6024C181.946 47.6024 182.693 47.2918 183.58 46.6552L183.627 46.6241V42.4625L183.471 42.5091Z" fill="white"/>
<path d="M133.473 48.9844C132.602 48.9844 132.181 48.4874 132.15 47.447L132.135 47.2141L131.948 47.3694C130.703 48.4409 129.614 48.9999 128.711 48.9999C127.062 48.9999 126.02 48.0061 126.02 46.4377C126.02 45.5836 126.455 44.8227 127.327 44.124C128.229 43.4097 129.816 42.6798 132.041 41.9189L132.119 41.8879V41.8102C132.119 39.7139 131.808 38.5027 130.174 38.5027C128.789 38.5027 128.509 39.2481 128.509 39.8847C128.509 41.0183 128.151 41.5773 127.404 41.5773C126.813 41.5773 126.409 41.158 126.409 40.5369C126.409 39.8226 126.766 39.217 127.498 38.689C128.245 38.1455 129.272 37.866 130.532 37.866C133.068 37.866 134.298 38.9064 134.298 41.0338V45.8321C134.298 47.1986 134.5 47.5247 134.858 47.6334C134.889 47.6489 134.92 47.6489 134.967 47.6489C135.169 47.6489 135.418 47.4936 135.714 47.1831L135.947 47.4781C135.185 48.4719 134.344 48.9844 133.473 48.9844ZM131.995 42.509C129.116 43.6736 128.245 44.4656 128.245 45.9097C128.245 46.8725 128.945 47.6023 129.863 47.6023C130.47 47.6023 131.217 47.2918 132.104 46.6551L132.15 46.624V42.4624L131.995 42.509Z" fill="white"/>
<path d="M69.6991 46.6978V39.5321H70.2681V40.5341H70.328C70.3878 40.3822 70.5076 40.2304 70.6274 40.0482C70.7472 39.8964 70.9269 39.7446 71.1365 39.6232C71.3461 39.5017 71.6156 39.441 71.915 39.441C72.3343 39.441 72.7236 39.5624 73.023 39.775C73.3524 39.9875 73.592 40.3215 73.7716 40.7162C73.9513 41.111 74.0411 41.5968 74.0411 42.1129C74.0411 42.6595 73.9513 43.1149 73.7716 43.54C73.592 43.9347 73.3524 44.2687 73.023 44.4813C72.6936 44.6938 72.3343 44.8153 71.915 44.8153C71.6156 44.8153 71.3461 44.7545 71.1365 44.6331C70.9269 44.5116 70.7472 44.3902 70.6274 44.208C70.5076 44.0562 70.3878 43.874 70.328 43.7222H70.2681V46.6371H69.6991V46.6978ZM70.298 42.1433C70.298 42.5684 70.3579 42.9327 70.4777 43.2667C70.5975 43.6007 70.7771 43.8436 71.0167 44.0258C71.2562 44.208 71.5258 44.2991 71.8551 44.2991C72.1845 44.2991 72.484 44.208 72.7236 44.0258C72.9631 43.8436 73.1428 43.5704 73.2626 43.2364C73.3824 42.9024 73.4422 42.538 73.4422 42.1433C73.4422 41.7486 73.3824 41.3842 73.2626 41.0502C73.1428 40.7162 72.9631 40.4733 72.7236 40.2912C72.484 40.109 72.1845 40.0179 71.8551 40.0179C71.5258 40.0179 71.2263 40.109 71.0167 40.2912C70.7771 40.4733 70.5975 40.7162 70.4777 41.0502C70.3579 41.3539 70.298 41.7182 70.298 42.1433Z" fill="white"/>
<path d="M77.3052 44.8456C76.8561 44.8456 76.4668 44.7242 76.1374 44.5116C75.808 44.2687 75.5385 43.9651 75.3289 43.5704C75.1492 43.1757 75.0294 42.6899 75.0294 42.1737C75.0294 41.6271 75.1193 41.1717 75.3289 40.777C75.5085 40.3822 75.778 40.0482 76.1374 39.8357C76.4668 39.6232 76.8561 39.5017 77.3052 39.5017C77.7544 39.5017 78.1437 39.6232 78.4731 39.8357C78.8025 40.0786 79.072 40.3822 79.2816 40.777C79.4613 41.1717 79.5811 41.6575 79.5811 42.1737C79.5811 42.6899 79.4912 43.1757 79.2816 43.5704C79.072 43.9651 78.8324 44.2991 78.4731 44.5116C78.1437 44.7545 77.7245 44.8456 77.3052 44.8456ZM77.3052 44.2991C77.6646 44.2991 77.964 44.208 78.2036 43.9955C78.4432 43.8133 78.6528 43.54 78.7726 43.206C78.8923 42.872 78.9522 42.538 78.9522 42.1433C78.9522 41.7486 78.8923 41.3842 78.7726 41.0806C78.6528 40.7466 78.4432 40.5037 78.2036 40.2912C77.964 40.109 77.6646 39.9875 77.3052 39.9875C76.9459 39.9875 76.6464 40.0786 76.4069 40.2912C76.1673 40.4733 75.9577 40.7466 75.8379 41.0806C75.7181 41.4146 75.6583 41.7486 75.6583 42.1433C75.6583 42.538 75.7181 42.9024 75.8379 43.206C75.9577 43.54 76.1673 43.7829 76.4069 43.9955C76.6464 44.208 76.9459 44.2991 77.3052 44.2991Z" fill="white"/>
<path d="M81.7971 44.7546L80.24 39.5321H80.8688L82.0966 43.8133H82.1265L83.3543 39.5321H83.9831L85.1809 43.8133H85.2408L86.4686 39.5321H87.0974L85.5403 44.7546H84.9114L83.6837 40.4734H83.6238L82.396 44.7546H81.7971Z" fill="white"/>
<path d="M90.0917 44.8457C89.6126 44.8457 89.1934 44.7243 88.834 44.5117C88.4747 44.2992 88.2052 43.9652 88.0255 43.5705C87.8459 43.1758 87.7261 42.6899 87.7261 42.1738C87.7261 41.6576 87.8159 41.1718 88.0255 40.7771C88.2052 40.3823 88.4747 40.0483 88.8041 39.8054C89.1335 39.5625 89.5228 39.4714 89.972 39.4714C90.2415 39.4714 90.511 39.5322 90.7805 39.6233C91.05 39.7143 91.2596 39.8965 91.4692 40.1091C91.6788 40.3216 91.8286 40.5949 91.9483 40.8985C92.0681 41.2325 92.128 41.5969 92.128 42.022V42.3256H88.1154V41.779H91.5291C91.5291 41.445 91.4692 41.1414 91.3195 40.8681C91.1997 40.5949 90.9901 40.3823 90.7805 40.2305C90.5409 40.0787 90.2714 39.9876 89.972 39.9876C89.6426 39.9876 89.3731 40.0787 89.1036 40.2609C88.864 40.4431 88.6544 40.6556 88.5346 40.9592C88.3849 41.2629 88.325 41.5665 88.325 41.9005V42.2041C88.325 42.6292 88.3849 42.9936 88.5346 43.2972C88.6843 43.6008 88.864 43.8437 89.1335 44.0259C89.403 44.2081 89.7024 44.2688 90.0618 44.2688C90.3013 44.2688 90.511 44.2385 90.6906 44.1474C90.8703 44.0563 91.02 43.9652 91.1698 43.8437C91.2895 43.7223 91.3794 43.5705 91.4692 43.4187L92.0382 43.6008C91.9483 43.8134 91.8286 44.0259 91.6489 44.2081C91.4692 44.3903 91.2596 44.5421 90.9901 44.6636C90.7206 44.8154 90.4211 44.8457 90.0917 44.8457Z" fill="white"/>
<path d="M93.4156 44.7545V39.5321H93.9846V40.3215H94.0146C94.1044 40.0482 94.2841 39.8357 94.5536 39.6839C94.8231 39.5321 95.0926 39.441 95.422 39.441C95.4819 39.441 95.5118 39.441 95.5717 39.441C95.6316 39.441 95.6915 39.441 95.7214 39.441V40.0482C95.6915 40.0482 95.6615 40.0482 95.5717 40.0179C95.5118 40.0179 95.422 40.0179 95.3621 40.0179C95.0926 40.0179 94.853 40.0786 94.6434 40.2001C94.4338 40.3215 94.2841 40.4733 94.1643 40.6859C94.0445 40.8984 93.9846 41.111 93.9846 41.3842V44.7545H93.4156Z" fill="white"/>
<path d="M98.6559 44.8457C98.1768 44.8457 97.7576 44.7243 97.3982 44.5117C97.0389 44.2992 96.7694 43.9652 96.5897 43.5705C96.4101 43.1758 96.2903 42.6899 96.2903 42.1738C96.2903 41.6576 96.3801 41.1718 96.5897 40.7771C96.7694 40.3823 97.0389 40.0483 97.3683 39.8054C97.6977 39.5625 98.087 39.4714 98.5362 39.4714C98.8057 39.4714 99.0752 39.5322 99.3447 39.6233C99.6142 39.7143 99.8238 39.8965 100.033 40.1091C100.243 40.3216 100.393 40.5949 100.513 40.8985C100.632 41.2325 100.692 41.5969 100.692 42.022V42.3256H96.6796V41.779H100.093C100.093 41.445 100.033 41.1414 99.8837 40.8681C99.7639 40.5949 99.5543 40.3823 99.3447 40.2305C99.1051 40.0787 98.8356 39.9876 98.5362 39.9876C98.2068 39.9876 97.9373 40.0787 97.6678 40.2609C97.4282 40.4431 97.2186 40.6556 97.0988 40.9592C96.9491 41.2629 96.8892 41.5665 96.8892 41.9005V42.2041C96.8892 42.6292 96.9491 42.9936 97.0988 43.2972C97.2485 43.6008 97.4282 43.8437 97.6977 44.0259C97.9672 44.2081 98.2667 44.2688 98.626 44.2688C98.8656 44.2688 99.0752 44.2385 99.2548 44.1474C99.4345 44.0563 99.5842 43.9652 99.734 43.8437C99.8537 43.7223 99.9436 43.5705 100.033 43.4187L100.602 43.6008C100.513 43.8134 100.393 44.0259 100.213 44.2081C100.033 44.3903 99.8238 44.5421 99.5543 44.6636C99.2848 44.8154 98.9853 44.8457 98.6559 44.8457Z" fill="white"/>
<path d="M103.836 44.8456C103.417 44.8456 103.058 44.7241 102.728 44.5116C102.399 44.299 102.16 43.965 101.98 43.5703C101.8 43.1756 101.71 42.6898 101.71 42.1432C101.71 41.5967 101.8 41.1413 101.98 40.7465C102.16 40.3518 102.399 40.0178 102.728 39.8053C103.058 39.5927 103.417 39.4713 103.836 39.4713C104.136 39.4713 104.405 39.532 104.615 39.6535C104.825 39.7749 104.974 39.8964 105.124 40.0785C105.244 40.2304 105.334 40.4125 105.424 40.5644H105.483V37.8317H106.082V44.7848H105.513V43.8132H105.453C105.394 43.965 105.274 44.1472 105.154 44.299C105.034 44.4509 104.855 44.6027 104.645 44.7241C104.405 44.8152 104.166 44.8456 103.836 44.8456ZM103.926 44.299C104.256 44.299 104.555 44.2079 104.765 44.0258C105.004 43.8436 105.184 43.6007 105.304 43.2667C105.424 42.9327 105.483 42.5683 105.483 42.1432C105.483 41.7182 105.424 41.3538 105.304 41.0502C105.184 40.7162 105.004 40.4733 104.765 40.2911C104.525 40.1089 104.256 40.0178 103.926 40.0178C103.597 40.0178 103.297 40.1089 103.058 40.2911C102.818 40.4733 102.639 40.7465 102.519 41.0502C102.399 41.3842 102.339 41.7182 102.339 42.1432C102.339 42.538 102.399 42.9023 102.519 43.2363C102.639 43.5703 102.818 43.8132 103.058 44.0258C103.297 44.2079 103.567 44.299 103.926 44.299Z" fill="white"/>
<path d="M110.454 44.7546V37.8014H111.053V40.5341H111.113C111.173 40.3823 111.263 40.2305 111.413 40.0483C111.532 39.8965 111.712 39.7446 111.922 39.6232C112.131 39.5017 112.401 39.441 112.7 39.441C113.119 39.441 113.479 39.5625 113.808 39.775C114.138 39.9875 114.377 40.3215 114.557 40.7163C114.736 41.111 114.826 41.5968 114.826 42.113C114.826 42.6595 114.736 43.115 114.557 43.54C114.377 43.9348 114.138 44.2688 113.808 44.4813C113.479 44.6938 113.119 44.8153 112.7 44.8153C112.401 44.8153 112.131 44.7546 111.922 44.6331C111.712 44.5117 111.532 44.3902 111.413 44.208C111.293 44.0562 111.173 43.874 111.113 43.7222H111.053V44.6939H110.454V44.7546ZM111.023 42.1433C111.023 42.5684 111.083 42.9328 111.203 43.2668C111.323 43.6008 111.502 43.8437 111.742 44.0259C111.982 44.208 112.251 44.2991 112.58 44.2991C112.91 44.2991 113.209 44.208 113.449 44.0259C113.688 43.8437 113.868 43.5704 113.988 43.2364C114.108 42.9024 114.168 42.5381 114.168 42.1433C114.168 41.7486 114.108 41.3843 113.988 41.0503C113.868 40.7163 113.688 40.4734 113.449 40.2912C113.209 40.109 112.91 40.0179 112.58 40.0179C112.251 40.0179 111.952 40.109 111.742 40.2912C111.502 40.4734 111.323 40.7163 111.203 41.0503C111.083 41.3539 111.023 41.7183 111.023 42.1433Z" fill="white"/>
<path d="M116.264 46.6979C116.144 46.6979 116.024 46.6979 115.934 46.6675C115.845 46.6371 115.755 46.6068 115.695 46.6068L115.845 46.0602C116.054 46.121 116.234 46.1513 116.384 46.121C116.533 46.0906 116.683 46.0299 116.803 45.9084C116.923 45.787 117.042 45.5744 117.132 45.3315L117.312 44.8153L115.425 39.5625H116.084L117.611 43.9652H117.671L119.199 39.5625H119.857L117.671 45.6048C117.581 45.8477 117.462 46.0602 117.342 46.2424C117.222 46.4246 117.042 46.546 116.893 46.6068C116.683 46.6675 116.503 46.6979 116.264 46.6979Z" fill="white"/>
</svg>
