<?xml version="1.0" standalone="no"?>
<!DOCTYPE svg PUBLIC "-//W3C//DTD SVG 20010904//EN"
 "http://www.w3.org/TR/2001/REC-SVG-20010904/DTD/svg10.dtd">
<svg version="1.0" xmlns="http://www.w3.org/2000/svg"
 width="676.000000pt" height="676.000000pt" viewBox="0 0 676.000000 676.000000"
 preserveAspectRatio="xMidYMid meet">
<metadata>
Created by potrace 1.14, written by Peter Selinger 2001-2017
</metadata>
<g transform="translate(0.000000,676.000000) scale(0.100000,-0.100000)"
fill="#000000" stroke="none">
<path d="M1085 6715 c-274 -60 -482 -258 -554 -527 -19 -72 -20 -119 -20
-2828 -1 -2439 1 -2762 15 -2815 65 -256 233 -444 469 -525 58 -20 79 -20
2667 -20 l2608 0 0 2885 0 2885 -264 0 c-202 0 -265 -3 -268 -12 -2 -7 -4
-1189 -3 -2626 l1 -2612 -2206 2 -2205 3 -58 28 c-204 101 -271 346 -145 533
42 61 139 128 208 143 36 8 608 11 1958 11 l1908 0 0 2745 0 2745 -2026 -1
c-1637 -1 -2036 -4 -2085 -14z m1619 -885 c23 -11 50 -33 61 -49 18 -28 20
-29 47 -15 66 34 157 5 195 -62 20 -36 26 -39 66 -39 53 -1 92 -24 114 -70
l16 -34 19 24 c49 63 145 97 231 84 63 -10 146 -64 171 -112 l20 -35 30 22
c123 91 293 27 329 -125 6 -24 10 -26 71 -25 56 1 70 -3 107 -29 53 -38 81
-90 83 -157 l1 -51 39 -4 c66 -7 107 -36 139 -98 17 -34 16 -109 -1 -142 -15
-27 -15 -43 -1 -43 30 0 76 -82 72 -127 0 -7 -1 -21 -2 -32 0 -10 -12 -34 -25
-54 -24 -35 -24 -37 -7 -59 23 -29 33 -81 22 -111 -8 -21 -5 -25 25 -36 47
-17 90 -55 121 -109 36 -60 39 -165 7 -229 l-21 -42 31 -12 c73 -29 127 -109
128 -189 0 -56 -33 -131 -71 -161 l-24 -19 25 -28 c33 -34 51 -102 43 -153 -8
-49 -55 -113 -97 -135 -18 -9 -34 -17 -35 -19 -2 -1 5 -19 16 -40 53 -109 -38
-245 -161 -239 -9 1 -16 -1 -15 -5 0 -3 -2 -25 -6 -47 -12 -73 -99 -132 -168
-113 -23 6 -28 2 -42 -27 -9 -18 -32 -44 -52 -56 -33 -22 -35 -26 -35 -77 0
-105 -74 -207 -172 -236 -29 -8 -61 -15 -72 -15 -19 0 -21 -6 -22 -63 0 -36
-7 -75 -17 -93 -19 -36 -79 -91 -114 -105 -32 -12 -119 -12 -143 1 -16 9 -22
3 -43 -43 -48 -106 -167 -144 -265 -86 l-34 20 -40 -46 c-71 -80 -167 -84
-245 -9 l-45 42 -35 -15 c-19 -8 -49 -13 -67 -11 -46 4 -103 45 -122 88 -14
32 -20 37 -38 31 -26 -10 -82 3 -106 24 -10 9 -23 29 -30 45 l-12 28 -36 -34
c-78 -73 -188 -93 -278 -49 -61 30 -75 41 -107 87 l-25 38 -25 -20 c-129 -101
-319 -15 -336 152 -1 4 -11 4 -23 -1 -13 -4 -40 -7 -60 -5 -98 9 -171 89 -172
188 0 51 0 51 -33 53 -118 7 -194 129 -149 238 10 22 13 41 7 43 -43 14 -84
93 -76 145 8 48 25 85 42 91 12 5 11 10 -5 34 -25 35 -37 95 -24 118 8 15 4
21 -27 35 -99 44 -156 137 -149 243 2 34 12 76 21 95 9 19 17 36 17 37 0 2
-18 13 -39 24 -129 65 -155 235 -51 335 l29 28 -31 38 c-43 53 -49 125 -18
192 22 46 78 97 107 97 17 0 16 6 -2 34 -33 51 -22 150 23 199 23 26 69 48
103 51 36 3 42 9 45 46 5 70 89 134 163 125 38 -5 41 -3 57 31 10 21 31 42 49
51 31 15 33 18 33 72 0 130 96 237 224 249 l47 4 -6 49 c-17 143 113 248 268
215 34 -7 36 -6 42 22 13 64 101 131 173 132 39 0 93 -18 118 -39 13 -11 20
-13 23 -4 8 22 58 72 88 88 41 21 101 19 149 -5z"/>
<path d="M2500 5521 c-27 -67 -93 -104 -184 -105 l-59 -1 -13 -46 c-17 -59
-77 -114 -139 -131 -35 -9 -44 -16 -39 -28 3 -8 8 -42 11 -75 7 -79 -22 -149
-84 -205 l-45 -40 22 -35 c32 -53 37 -131 11 -189 l-21 -48 25 -20 c51 -40 81
-129 64 -189 -6 -24 -3 -28 30 -38 66 -21 110 -76 115 -144 3 -40 4 -42 49
-52 51 -11 93 -43 107 -81 8 -21 13 -23 29 -14 49 26 136 -3 159 -54 8 -19 18
-23 46 -22 32 1 37 6 63 58 25 49 27 59 15 75 -7 10 -12 33 -10 50 3 25 0 34
-14 39 -59 18 -94 114 -64 173 17 31 16 32 -13 57 -33 28 -52 80 -45 121 7 39
32 81 55 93 19 11 19 13 5 29 -72 79 -43 224 53 267 l37 16 -9 47 c-24 117 48
220 163 233 32 4 35 8 42 45 10 59 32 97 77 134 50 39 46 64 -8 54 -20 -4 -43
-8 -51 -10 -25 -4 -74 16 -102 43 l-28 26 -39 -22 c-49 -28 -114 -29 -163 -3
l-36 20 -12 -28z"/>
<path d="M3588 5240 c-42 -43 -86 -62 -159 -67 -52 -4 -75 -1 -112 15 l-47 21
-15 -28 c-17 -34 -78 -89 -113 -102 -15 -6 -45 -12 -67 -13 -36 -3 -40 -6 -46
-35 -11 -54 -54 -108 -106 -132 l-48 -22 0 -62 c0 -71 -28 -122 -82 -152 -29
-15 -30 -18 -17 -37 20 -29 18 -105 -5 -142 l-19 -32 23 -22 c34 -32 46 -88
27 -133 -8 -21 -18 -37 -23 -37 -4 0 -1 -13 8 -28 16 -27 20 -29 85 -28 47 1
68 5 68 13 0 7 15 23 34 35 26 17 33 28 31 48 -7 68 55 130 131 130 18 0 24 5
24 21 0 35 41 97 76 114 37 17 87 20 114 5 16 -9 22 -5 36 22 31 62 70 92 133
103 40 7 101 -9 132 -34 23 -18 23 -18 43 7 67 85 220 79 292 -12 26 -32 27
-33 57 -18 45 23 133 19 185 -7 23 -12 42 -27 42 -33 0 -9 3 -9 11 -1 9 9 4
20 -19 43 -39 38 -54 101 -36 147 13 32 12 33 -25 54 -48 27 -84 88 -84 143 0
40 -1 42 -27 38 -74 -11 -168 52 -191 129 -10 30 -16 38 -28 33 -70 -29 -164
-8 -222 50 l-34 34 -27 -28z"/>
<path d="M1570 4798 c0 -52 -75 -128 -126 -128 -17 0 -21 -6 -19 -27 1 -16 -3
-43 -8 -62 -10 -37 -55 -101 -72 -101 -31 -1 -36 -17 -16 -51 39 -66 31 -160
-18 -219 l-26 -32 31 -33 c50 -53 67 -154 38 -228 -4 -12 -1 -17 12 -17 33 -1
103 -38 135 -72 38 -41 68 -105 72 -154 l3 -37 51 -2 c64 -3 137 -43 165 -91
19 -32 50 -45 62 -25 5 7 65 9 112 2 6 0 32 -15 59 -33 33 -22 50 -28 53 -20
7 22 83 54 128 54 26 0 58 -8 78 -20 l33 -19 18 27 c25 38 51 52 109 59 42 5
50 9 53 31 8 53 91 107 143 93 14 -4 20 0 20 11 0 9 9 25 20 36 l21 21 -25 29
c-13 17 -27 39 -31 49 -5 16 -11 18 -33 12 -29 -9 -65 0 -76 18 -5 7 -20 4
-44 -9 -20 -11 -51 -20 -68 -20 -35 0 -94 35 -109 67 -10 19 -13 20 -39 6 -68
-36 -164 9 -187 87 -11 36 -12 36 -64 36 -100 0 -182 87 -173 185 3 32 0 39
-15 39 -30 0 -82 26 -112 55 -54 54 -70 139 -41 210 8 19 11 35 7 35 -5 0 -27
18 -48 40 -47 46 -68 108 -61 175 3 25 2 45 -3 45 -5 0 -9 -10 -9 -22z"/>
<path d="M3646 4386 c-33 -27 -45 -31 -99 -31 -41 0 -70 6 -87 17 -25 17 -26
17 -52 -16 -30 -37 -85 -61 -124 -53 -21 4 -25 -1 -34 -33 -14 -53 -50 -82
-108 -88 -41 -3 -50 -8 -60 -32 -11 -25 -10 -32 13 -65 14 -21 25 -43 25 -50
0 -8 13 -13 35 -12 21 1 42 -6 52 -16 16 -15 18 -15 35 0 10 9 42 18 72 21 52
4 55 3 95 -37 36 -36 44 -40 63 -30 11 6 43 9 70 7 59 -6 99 -40 117 -98 11
-36 14 -39 39 -34 39 8 105 -12 140 -41 37 -31 62 -91 58 -142 -3 -35 -1 -39
23 -41 43 -4 112 -53 134 -96 26 -49 30 -119 11 -165 -15 -36 -15 -37 29 -62
9 -5 30 -29 44 -52 24 -36 28 -53 28 -114 0 -68 5 -86 12 -41 6 39 43 86 84
106 23 11 47 18 53 16 9 -3 12 7 10 36 -3 53 31 119 78 149 l36 23 -20 34
c-39 66 -27 167 25 223 l25 26 -34 33 c-55 54 -70 143 -39 223 4 12 -5 19 -37
28 -42 13 -100 49 -126 81 -24 28 -54 102 -57 139 -2 35 -3 36 -47 37 -64 1
-134 38 -171 90 -27 38 -33 42 -51 32 -29 -16 -118 -13 -152 5 -16 8 -38 24
-49 35 -20 18 -21 18 -59 -12z"/>
<path d="M3120 3865 c0 -5 -13 -30 -30 -55 -28 -42 -28 -45 -12 -63 9 -11 17
-35 17 -58 0 -28 4 -41 16 -44 60 -19 92 -103 64 -165 l-16 -37 35 -35 c35
-35 41 -52 37 -113 -2 -32 -25 -73 -52 -93 -17 -12 -17 -14 6 -49 14 -20 26
-45 26 -57 1 -12 2 -28 3 -36 5 -57 -44 -132 -102 -157 -26 -11 -32 -18 -26
-31 49 -111 -46 -262 -166 -262 -26 0 -30 -3 -30 -29 0 -44 -27 -100 -67 -137
-20 -19 -40 -34 -44 -34 -11 0 -11 -11 0 -28 7 -11 16 -11 50 -1 51 15 106 1
144 -36 l25 -26 45 25 c54 28 112 27 163 -3 l32 -19 6 23 c9 36 73 94 119 106
23 6 60 9 82 6 l41 -6 17 49 c27 76 104 140 167 140 23 0 23 0 9 37 -18 45
-12 131 13 182 21 45 73 104 98 113 8 2 4 19 -14 52 -32 60 -34 132 -7 192
l19 42 -27 20 c-41 30 -65 87 -66 156 0 57 -1 60 -30 69 -61 19 -115 93 -115
156 0 17 -3 31 -7 32 -75 8 -117 31 -138 76 -14 29 -18 31 -41 23 -14 -6 -34
-10 -46 -10 -34 0 -88 31 -103 60 -11 22 -23 29 -55 32 -23 2 -40 -1 -40 -7z"/>
<path d="M2817 3688 c8 -14 -31 -69 -54 -74 -18 -5 -22 -13 -21 -45 1 -66 -52
-122 -117 -122 -30 0 -33 -4 -38 -34 -16 -93 -108 -144 -199 -108 -11 5 -18 0
-24 -17 -18 -59 -76 -101 -154 -112 -30 -4 -75 10 -111 35 -25 18 -26 18 -45
-5 -47 -58 -157 -79 -226 -45 -20 11 -49 34 -64 52 l-26 33 -50 -17 c-68 -23
-151 -10 -198 31 -13 11 -27 17 -33 13 -6 -3 2 -15 17 -26 47 -34 68 -113 47
-170 -8 -21 -6 -26 17 -38 55 -28 92 -90 92 -154 0 -35 0 -35 45 -35 80 0 155
-57 176 -132 9 -33 12 -37 29 -28 55 29 161 6 215 -47 l37 -38 38 36 c37 35
96 59 160 64 34 3 115 -18 136 -36 11 -9 16 -6 23 13 25 67 96 117 176 123 22
2 42 4 45 4 3 1 7 12 8 26 5 60 62 128 123 147 35 10 37 12 32 49 -3 21 -2 54
1 73 7 35 53 93 90 113 18 10 19 13 4 43 -19 39 -14 95 12 131 18 26 18 26 -6
51 -39 39 -48 94 -22 146 19 40 19 44 4 61 -9 10 -16 24 -16 33 0 12 -13 15
-64 14 -35 -1 -62 -4 -59 -8z"/>
</g>
</svg>
